<svg xmlns="http://www.w3.org/2000/svg" viewBox="0 0 64 64" id="christmas-invitation-card">
  <path fill="#44b788" d="M32.315,13.167s-11.439,7.065-13.144,8.321-6.413,6.885-6.413,6.885-.672,20.383-.014,21.086c.78.834,13.682,1.126,13.682,1.126s10.477.017,13.97.02c2.371,0,8.236,0,9.4-1.261.495-.535.852-8.669.852-8.669l-.515-10.764-4.809-6.4L35.183,15.086Z"></path>
  <polygon fill="#efebd5" points="46.605 32 31.693 41.687 17.25 31.25 17.652 17.855 45.876 18.191 46.605 32"></polygon>
  <path fill="#ea5d4e" d="M35,25.458a3.312,3.312,0,0,0-2.768,1.667,2.924,2.924,0,0,0-4.024-1.187c-1.583.958-1.875,2.937-1.381,4.732s2.8,3.5,5.4,4.311c0,0,4.679-1.381,5.424-4.512C38.142,28.428,38.167,25.708,35,25.458Z"></path>
  <g>
    <path fill="#512c47" d="M50.856,46.252c.032-1.018.064-2.037.09-3.056.034-1.3.061-2.609.069-3.913.011-1.622-.01-3.245-.072-4.866q-.046-1.185-.131-2.368c-.022-.323-.047-.646-.071-.968s-.026-.647-.066-.966a3.486,3.486,0,0,0-.241-.658c-.121-.205-.225-.412-.357-.612q-.226-.346-.464-.687-.474-.681-.982-1.336-.809-1.043-1.688-2.026a62.613,62.613,0,0,0-.465-6.677.573.573,0,0,0-.473-.424c-.44-.057-4.257.248-6.362.235q-.831-.675-1.68-1.332-1.453-1.126-2.947-2.2c-.5-.358-1.115-.795-1.618-1.146-.459-.32-.828-.68-1.4-.334-.635.383-1.26.786-1.885,1.184q-1.953,1.246-3.867,2.555-.553.378-1.105.761l-.488-.008c-2.273-.031-4.55.016-6.815.2-.584.048-.632.687-.675,1.162-.136,1.529-.186,4.988-.271,5.064q-.345.3-.683.619c-.734.679-1.455,1.373-2.153,2.089q-.524.537-1.028,1.093a2.475,2.475,0,0,0-.869,1.482c-.345,4.221-.254,8.464-.18,12.7-.044,1.341.056,2.7.08,4.043.012.681.028,1.362.04,2.042-.01.3.021.611.018.916-.016,2.083,2.224,1.527,4.608,1.75,4.98.465,9.986.59,14.991.659,4.527.063,8.774.064,13.292-.219,1.727-.108,5.52-.143,5.723-2.12.037-.364.066-.743.078-1.11ZM47.762,27.511c.583.755,1.135,1.536,1.644,2.343a.567.567,0,0,0,.107.126,25.549,25.549,0,0,0-2.391.985c-.069-1.41-.1-2.9-.135-4.415Q47.383,27.024,47.762,27.511ZM32.486,13.974c1.536,1.058,3.05,2.149,4.528,3.286.276.213.553.428.827.646-3.585-.081-7.172-.321-10.757-.439C28.862,16.267,30.667,15.11,32.486,13.974ZM17.98,24.311c.068-.519.172-4.735.374-5.682,1.573-.1,3.661-.121,5.235-.118q.968,0,1.935.024c4.544.1,9.09.451,13.632.5h.092q.866.009,1.731,0c1.495-.014,2.99-.073,4.48-.192.033.257.279,3.438.33,4.727.023.564.053,1.128.07,1.692.051,1.765.091,3.529.186,5.292,0,.1.037.751.083,1.1-1.434.737-13.351,9.21-14.175,9.21,0,0-.5-.35-.795-.585-1.07-.849-12.583-8.824-13.392-9.209C17.766,31.076,17.975,24.352,17.98,24.311ZM13.665,28.6a46.793,46.793,0,0,1,3.18-3.458s-.153,4.733-.09,5.419c-.82-.434-2.9-1.794-3.111-1.893C13.632,28.664,13.642,28.639,13.665,28.6Zm35.887,20.4a.819.819,0,0,1-.475.318,10.69,10.69,0,0,1-1.249.3c-1.038.182-2.092.279-3.143.36-1.069.082-2.14.139-3.212.182-.653.026-1.3.046-1.958.064l-.073,0q-4.3.126-8.6.045c-2.921-.056-5.839-.192-8.755-.366-1.452-.086-2.982-.183-4.461-.3-.8-.065-4.034-.146-4.246-.595-.324-.684-.254-5.482-.277-6.841-.047-2.718-.066-5.436-.025-8.154q.027-1.733.088-3.464c0-.082-.016-.535-.011-.892,1.238.568,15.484,10.01,16.613,10.945.291.24.591.449.886.684.135.109.271.208.405.319-.234.144-.47.28-.708.419a.554.554,0,1,0,.565.954C34.675,40.78,45.973,32.9,48,31.8a10.281,10.281,0,0,1,1.631-.657h0c.025.2.046.537.066.813.058.788.1,1.57.134,2.361.067,1.621.085,3.24.077,4.862-.01,2.042-.066,4.081-.129,6.122q-.027.9-.057,1.8c-.009.306-.019.612-.028.918A2.172,2.172,0,0,1,49.552,49.006Z"></path>
    <polygon fill="#512c47" points="45.459 19.703 45.459 19.703 45.459 19.703 45.459 19.703"></polygon>
    <path fill="#512c47" d="M21.638 28.066a.556.556 0 1 0 .558.555A.56.56 0 0 0 21.638 28.066zM44.138 29.7a.556.556 0 1 0-.557-.555A.561.561 0 0 0 44.138 29.7zM32.332 22.246a.556.556 0 1 0-.557-.555A.561.561 0 0 0 32.332 22.246z"></path>
  </g>
  <path fill="#512c47" d="M38.258,27.4c-.8-2.524-4.451-3.2-6.026-1.308-1.574-1.9-5.227-1.216-6.025,1.308-1.234,3.9,2.249,7.116,5.759,7.875a.5.5,0,0,0,.266-.018.5.5,0,0,0,.267.018C36.009,34.512,39.492,31.3,38.258,27.4Zm-1.21,3.5c-.757,1.78-2.979,3.008-4.816,3.405-1.836-.4-4.058-1.625-4.815-3.405a5,5,0,0,1-.38-2.532,2.311,2.311,0,0,1,1.727-2.148,2.519,2.519,0,0,1,2.919.978.557.557,0,0,0,1.1,0,2.519,2.519,0,0,1,2.919-.978,2.309,2.309,0,0,1,1.726,2.148A5,5,0,0,1,37.048,30.9Z"></path>
</svg>
