<svg width="100%" viewBox="0 0 680 320" xmlns="http://www.w3.org/2000/svg">

<g transform="translate(340, 20)" style="fill:rgb(0, 0, 0);stroke:none;color:rgb(255, 255, 255);stroke-width:1px;stroke-linecap:butt;stroke-linejoin:miter;opacity:1;font-family:&quot;Anthropic Sans&quot;, -apple-system, BlinkMacSystemFont, &quot;Segoe UI&quot;, sans-serif;font-size:16px;font-weight:400;text-anchor:start;dominant-baseline:auto">
  <ellipse cx="3" cy="272" rx="28" ry="7" fill="#00000025" style="fill:rgba(0, 0, 0, 0.145);stroke:none;color:rgb(255, 255, 255);stroke-width:1px;stroke-linecap:butt;stroke-linejoin:miter;opacity:1;font-family:&quot;Anthropic Sans&quot;, -apple-system, BlinkMacSystemFont, &quot;Segoe UI&quot;, sans-serif;font-size:16px;font-weight:400;text-anchor:start;dominant-baseline:auto"/>
  <path d="&#10;    M0,268 C-4,258 -16,240 -28,220 C-44,194 -60,175 -72,152&#10;    C-82,130 -86,112 -86,96 C-86,44 -48,6 0,6&#10;    C48,6 86,44 86,96 C86,112 82,130 72,152&#10;    C60,175 44,194 28,220 C16,240 4,258 0,268 Z&#10;  " fill="white" style="fill:rgb(255, 255, 255);stroke:none;color:rgb(255, 255, 255);stroke-width:1px;stroke-linecap:butt;stroke-linejoin:miter;opacity:1;font-family:&quot;Anthropic Sans&quot;, -apple-system, BlinkMacSystemFont, &quot;Segoe UI&quot;, sans-serif;font-size:16px;font-weight:400;text-anchor:start;dominant-baseline:auto"/>
  <path d="&#10;    M0,262 C-3,253 -15,236 -26,217 C-42,191 -57,172 -68,150&#10;    C-78,128 -81,111 -81,96 C-81,47 -45,11 0,11&#10;    C45,11 81,47 81,96 C81,111 78,128 68,150&#10;    C57,172 42,191 26,217 C15,236 3,253 0,262 Z&#10;  " fill="#ff7a8a" style="fill:rgb(255, 122, 138);stroke:none;color:rgb(255, 255, 255);stroke-width:1px;stroke-linecap:butt;stroke-linejoin:miter;opacity:1;font-family:&quot;Anthropic Sans&quot;, -apple-system, BlinkMacSystemFont, &quot;Segoe UI&quot;, sans-serif;font-size:16px;font-weight:400;text-anchor:start;dominant-baseline:auto"/>
  <ellipse cx="-24" cy="52" rx="24" ry="15" fill="white" opacity="0.2" style="fill:rgb(255, 255, 255);stroke:none;color:rgb(255, 255, 255);stroke-width:1px;stroke-linecap:butt;stroke-linejoin:miter;opacity:0.2;font-family:&quot;Anthropic Sans&quot;, -apple-system, BlinkMacSystemFont, &quot;Segoe UI&quot;, sans-serif;font-size:16px;font-weight:400;text-anchor:start;dominant-baseline:auto"/>
  <!-- 하트 1.25배 -->
  <path d="M0,100 C-2,97 -27,83 -27,68 C-27,57 -19,51 -9,51 C-4,51 -1,55 0,61 C1,55 4,51 9,51 C19,51 27,57 27,68 C27,83 2,97 0,100 Z" fill="white" style="fill:rgb(255, 255, 255);stroke:none;color:rgb(255, 255, 255);stroke-width:1px;stroke-linecap:butt;stroke-linejoin:miter;opacity:1;font-family:&quot;Anthropic Sans&quot;, -apple-system, BlinkMacSystemFont, &quot;Segoe UI&quot;, sans-serif;font-size:16px;font-weight:400;text-anchor:start;dominant-baseline:auto"/>
  <!-- 링 1.25배 -->
  <circle cx="-22" cy="126" r="27" fill="none" stroke="white" stroke-width="8" style="fill:none;stroke:rgb(255, 255, 255);color:rgb(255, 255, 255);stroke-width:8px;stroke-linecap:butt;stroke-linejoin:miter;opacity:1;font-family:&quot;Anthropic Sans&quot;, -apple-system, BlinkMacSystemFont, &quot;Segoe UI&quot;, sans-serif;font-size:16px;font-weight:400;text-anchor:start;dominant-baseline:auto"/>
  <circle cx="22" cy="156" r="27" fill="none" stroke="white" stroke-width="8" style="fill:none;stroke:rgb(255, 255, 255);color:rgb(255, 255, 255);stroke-width:8px;stroke-linecap:butt;stroke-linejoin:miter;opacity:1;font-family:&quot;Anthropic Sans&quot;, -apple-system, BlinkMacSystemFont, &quot;Segoe UI&quot;, sans-serif;font-size:16px;font-weight:400;text-anchor:start;dominant-baseline:auto"/>
</g>

</svg>